<?xml version="1.0" standalone="no"?>
<!DOCTYPE svg PUBLIC "-//W3C//DTD SVG 20010904//EN"
 "http://www.w3.org/TR/2001/REC-SVG-20010904/DTD/svg10.dtd">
<svg version="1.0" xmlns="http://www.w3.org/2000/svg"
 width="200.000000pt" height="200.000000pt" viewBox="0 0 200.000000 200.000000"
 preserveAspectRatio="xMidYMid meet">
<metadata>
Created by potrace 1.14, written by Peter Selinger 2001-2017
</metadata>
<g transform="translate(0.000000,200.000000) scale(0.100000,-0.100000)"
fill="#000000" stroke="none">
<path d="M733 1753 c-10 -4 -13 -128 -13 -573 0 -509 2 -568 16 -574 20 -8
138 -8 158 0 14 5 16 37 16 255 l0 249 246 0 c276 0 274 0 274 70 0 70 2 70
-274 70 l-246 0 0 190 0 190 256 0 c208 0 258 3 270 14 20 20 19 102 -2 110
-19 7 -683 7 -701 -1z"/>
</g>
</svg>
